<svg width="97" height="86" viewBox="0 0 97 86" fill="none" xmlns="http://www.w3.org/2000/svg">
<path d="M10.7778 32.25L18.8611 8.0625H78.1389L86.2222 32.25M78.1389 59.125C75.9951 59.125 73.939 58.2756 72.4231 56.7635C70.9072 55.2515 70.0556 53.2008 70.0556 51.0625C70.0556 48.9242 70.9072 46.8735 72.4231 45.3615C73.939 43.8494 75.9951 43 78.1389 43C80.2827 43 82.3387 43.8494 83.8547 45.3615C85.3706 46.8735 86.2222 48.9242 86.2222 51.0625C86.2222 53.2008 85.3706 55.2515 83.8547 56.7635C82.3387 58.2756 80.2827 59.125 78.1389 59.125ZM18.8611 59.125C16.7173 59.125 14.6612 58.2756 13.1453 56.7635C11.6294 55.2515 10.7778 53.2008 10.7778 51.0625C10.7778 48.9242 11.6294 46.8735 13.1453 45.3615C14.6612 43.8494 16.7173 43 18.8611 43C21.0049 43 23.061 43.8494 24.5769 45.3615C26.0928 46.8735 26.9444 48.9242 26.9444 51.0625C26.9444 53.2008 26.0928 55.2515 24.5769 56.7635C23.061 58.2756 21.0049 59.125 18.8611 59.125ZM85.7911 5.375C84.7133 2.2575 81.6955 0 78.1389 0H18.8611C15.3044 0 12.2867 2.2575 11.2089 5.375L0 37.625V80.625C0 82.0505 0.567756 83.4177 1.57837 84.4257C2.58898 85.4337 3.95967 86 5.38889 86H10.7778C12.207 86 13.5777 85.4337 14.5883 84.4257C15.5989 83.4177 16.1667 82.0505 16.1667 80.625V75.25H80.8333V80.625C80.8333 82.0505 81.4011 83.4177 82.4117 84.4257C83.4223 85.4337 84.793 86 86.2222 86H91.6111C93.0403 86 94.411 85.4337 95.4216 84.4257C96.4322 83.4177 97 82.0505 97 80.625V37.625L85.7911 5.375Z" fill="black"/>
</svg>
