<svg width="92" height="92" viewBox="0 0 92 92" fill="none" xmlns="http://www.w3.org/2000/svg">
<path d="M3 88.9998V45.9805M89.0129 88.9998V45.9805M46.0064 88.9955V84.6949M46.0064 71.7886V67.488" stroke="black" stroke-width="4.5" stroke-linecap="round" stroke-linejoin="round"/>
<path d="M19.0199 18.7103L22.5894 21.9787M22.5894 21.9787C23.2775 20.8219 24.4602 18.7963 24.8559 17.5362C28.2921 6.48352 28.5974 3.43867 33.9001 3H58.0998C63.4068 3.43867 63.7079 6.48352 67.1441 17.5362C67.5355 18.8006 68.5117 20.8219 69.1955 21.9744M22.5894 21.9787C19.9918 26.3654 16.547 29.2296 16.0309 33.0142C15.9449 33.6335 16.0309 40.5489 16.0309 45.5635C16.0309 49.3308 19.6607 49.219 23.1958 49.5115C25.445 49.6964 27.6943 50.105 29.9478 50.1265C42.4455 50.2555 50.7113 50.2684 63.0714 50.1351C65.4626 50.105 67.8709 49.6577 70.2535 49.4556C72.9414 49.2276 75.7583 48.9223 75.9733 45.5635C76.3045 40.5532 76.0593 33.6335 75.9733 33.0142C75.4573 29.2296 71.7974 26.3611 69.1955 21.9744M69.1955 21.9744H22.5937M69.1955 21.9744L73.38 18.7103M16.7792 30.6488L21.9744 34.6054M39.8049 39.6028H52.4445M70.1761 34.5065L75.9174 32.6788M24.8559 49.6792L24.5204 56.7495M67.4322 49.7695V56.7495" stroke="black" stroke-width="4.5" stroke-linecap="round"/>
</svg>
