<?xml version="1.0" encoding="UTF-8"?>
<svg id="_レイヤー_1" data-name="レイヤー 1" xmlns="http://www.w3.org/2000/svg" xmlns:xlink="http://www.w3.org/1999/xlink" viewBox="0 0 1034 1034">
  <defs>
    <style>
      .cls-1 {
        fill: #cbcae6;
      }

      .cls-2 {
        fill: #40266e;
        filter: url(#drop-shadow-1);
        stroke: #fff;
        stroke-miterlimit: 10;
        stroke-width: 15px;
      }

      .cls-3 {
        fill: #fff;
      }
    </style>
    <filter id="drop-shadow-1" x="67.23" y="184.72" width="909.54" height="665.79" filterUnits="userSpaceOnUse">
      <feOffset dx="10" dy="8"/>
      <feGaussianBlur result="blur" stdDeviation="0"/>
      <feFlood flood-color="#3c2769" flood-opacity="1"/>
      <feComposite in2="blur" operator="in"/>
      <feComposite in="SourceGraphic"/>
    </filter>
  </defs>
  <rect class="cls-1" width="1034" height="1034"/>
  <path class="cls-2" d="M855.26,192.23l-686.09,11.98c-53.08.93-95.36,44.71-94.43,97.79l6.21,355.62c.93,53.08,44.71,95.36,97.79,94.43l483.24-8.43,105.6,87.08c12.33,10.16,30.9,1.21,30.62-14.77l-1.3-74.67,67.93-1.19c53.08-.93,95.36-44.71,94.43-97.79l-6.21-355.62c-.93-53.08-44.71-95.36-97.79-94.43Z"/>
  <g>
    <g>
      <path class="cls-3" d="M237.84,368.27c-5.71-6.73-12.69-10.02-20.91-9.88-3.62.06-6.96.78-10.02,2.15-3.06,1.37-5.69,3.21-7.87,5.51-2.18,2.3-3.88,5.03-5.1,8.17-1.22,3.15-1.8,6.53-1.74,10.15s.76,7.11,2.09,10.21c1.33,3.11,3.14,5.79,5.45,8.05,2.3,2.26,4.99,4.03,8.06,5.29,3.06,1.26,6.37,1.86,9.91,1.8,7.73-.13,14.63-3.55,20.68-10.24l.5,28.63-2.45.91c-3.68,1.38-7.12,2.41-10.32,3.08-3.2.67-6.36,1.04-9.49,1.09-6.42.11-12.59-1-18.51-3.32-5.93-2.32-11.17-5.65-15.73-9.97-4.56-4.32-8.25-9.49-11.07-15.48s-4.29-12.58-4.42-19.74,1.1-13.74,3.67-19.75c2.57-6.01,6.06-11.22,10.47-15.61,4.41-4.4,9.55-7.86,15.44-10.39,5.88-2.53,12.07-3.85,18.57-3.97,3.7-.06,7.35.26,10.94.98,3.59.72,7.38,1.87,11.36,3.44l.5,28.88Z"/>
      <path class="cls-3" d="M249.22,383.5c-.12-6.91,1.04-13.37,3.49-19.38,2.45-6.01,5.89-11.27,10.34-15.8,4.45-4.52,9.8-8.09,16.05-10.71,6.25-2.62,13.16-3.99,20.73-4.13s14.42,1,20.8,3.4c6.38,2.4,11.89,5.78,16.53,10.14s8.29,9.51,10.95,15.42c2.65,5.92,4.04,12.34,4.16,19.25s-1.04,13.37-3.49,19.38c-2.45,6.01-5.91,11.28-10.4,15.8-4.49,4.52-9.88,8.09-16.17,10.71-6.29,2.62-13.18,4-20.67,4.13s-14.52-1-20.86-3.4c-6.34-2.4-11.81-5.78-16.41-10.14-4.6-4.36-8.23-9.5-10.89-15.43-2.65-5.92-4.04-12.34-4.16-19.25ZM274.52,383.06c.06,3.7.82,7.1,2.28,10.21,1.45,3.1,3.39,5.79,5.82,8.05,2.43,2.26,5.23,4,8.42,5.22,3.19,1.22,6.55,1.8,10.09,1.74s6.88-.76,10.02-2.09c3.14-1.33,5.91-3.17,8.3-5.51,2.39-2.34,4.25-5.09,5.6-8.24,1.34-3.15,1.98-6.58,1.92-10.28-.06-3.7-.82-7.1-2.28-10.21-1.45-3.1-3.41-5.78-5.88-8.04-2.47-2.26-5.3-4-8.49-5.22-3.19-1.22-6.55-1.8-10.09-1.74-3.54.06-6.88.76-10.02,2.09-3.15,1.33-5.89,3.17-8.24,5.51-2.35,2.35-4.19,5.09-5.54,8.24-1.34,3.15-1.98,6.58-1.92,10.28Z"/>
      <path class="cls-3" d="M364.18,428.03l14.17-93.32,23.94-.42,19.5,49.28,17.64-49.93,23.94-.42,17.42,92.77-24.06.42-8.96-53.42-21.03,53.94-9.63.17-21.79-53.19-7.09,53.7-24.06.42Z"/>
      <path class="cls-3" d="M491.91,425.8l14.17-93.32,23.94-.42,19.5,49.28,17.64-49.93,23.94-.42,17.42,92.77-24.06.42-8.96-53.42-21.03,53.94-9.63.17-21.79-53.19-7.09,53.7-24.07.42Z"/>
      <path class="cls-3" d="M646.39,330.03l1.62,93.05-24.19.42-1.62-93.05,24.19-.42Z"/>
      <path class="cls-3" d="M667.51,422.74l-1.62-93.05,24.19-.42,45.67,56.11-.99-56.89,24.06-.42,1.62,93.05-24.06.42-45.67-56.11.99,56.89-24.19.42Z"/>
      <path class="cls-3" d="M824.32,367.91l48.01-.84c.09,4.94-.04,9.42-.38,13.46-.34,4.04-1.1,7.8-2.27,11.27-1.64,4.89-3.91,9.22-6.81,13.02-2.9,3.8-6.32,6.98-10.26,9.56-3.95,2.58-8.3,4.57-13.04,5.97-4.75,1.4-9.76,2.15-15.02,2.24-7.24.13-13.86-.95-19.87-3.23-6.01-2.28-11.19-5.54-15.54-9.79-4.35-4.24-7.78-9.37-10.27-15.38-2.49-6.01-3.8-12.67-3.93-19.99s.93-13.9,3.17-19.99c2.24-6.09,5.48-11.31,9.73-15.66,4.24-4.35,9.39-7.78,15.44-10.27,6.04-2.49,12.81-3.8,20.3-3.93,9.71-.17,18.26,1.78,25.65,5.85,7.4,4.07,13.31,10.47,17.74,19.19l-22.79,9.9c-2.23-5.06-5.07-8.68-8.52-10.84-3.45-2.16-7.36-3.2-11.72-3.13-3.62.06-6.9.8-9.84,2.21-2.94,1.41-5.43,3.39-7.49,5.93-2.05,2.55-3.65,5.6-4.78,9.16-1.13,3.56-1.66,7.52-1.58,11.88.07,3.95.65,7.6,1.73,10.96,1.09,3.36,2.68,6.25,4.78,8.68,2.1,2.43,4.68,4.3,7.75,5.61,3.07,1.3,6.62,1.92,10.65,1.85,2.39-.04,4.69-.35,6.9-.92,2.21-.57,4.19-1.47,5.94-2.7,1.75-1.22,3.18-2.79,4.3-4.7,1.12-1.91,1.86-4.23,2.22-6.95l-19.87.35-.33-18.76Z"/>
    </g>
    <g>
      <path class="cls-3" d="M276.2,498.24c-4.45-3.49-8.89-6.05-13.3-7.69-4.42-1.64-8.68-2.42-12.8-2.35-5.21.09-9.44,1.4-12.69,3.93-3.25,2.53-4.84,5.78-4.77,9.75.05,2.75.91,4.99,2.59,6.74,1.68,1.76,3.86,3.26,6.56,4.52,2.7,1.26,5.73,2.34,9.11,3.23,3.38.9,6.72,1.87,10.03,2.91,13.24,4.16,22.97,9.85,29.21,17.08,6.23,7.23,9.45,16.74,9.65,28.53.14,7.95-1.07,15.18-3.63,21.67-2.56,6.49-6.37,12.08-11.44,16.76-5.06,4.68-11.31,8.36-18.74,11.02-7.43,2.67-15.87,4.08-25.33,4.25-19.61.34-37.88-5.17-54.81-16.53l16.71-32.8c6.12,5.24,12.16,9.12,18.1,11.62,5.94,2.5,11.79,3.7,17.55,3.6,6.58-.11,11.46-1.71,14.63-4.78,3.17-3.07,4.72-6.53,4.65-10.37-.04-2.33-.49-4.34-1.34-6.05-.85-1.7-2.25-3.25-4.2-4.66-1.95-1.41-4.47-2.7-7.58-3.88-3.11-1.18-6.87-2.48-11.28-3.92-5.24-1.55-10.38-3.28-15.42-5.18-5.04-1.9-9.54-4.46-13.51-7.69-3.97-3.22-7.19-7.31-9.68-12.28-2.49-4.96-3.8-11.28-3.93-18.96s1.01-14.66,3.44-20.94c2.43-6.28,5.9-11.69,10.42-16.23,4.52-4.54,10.08-8.1,16.68-10.68,6.61-2.58,14.02-3.95,22.25-4.09,7.68-.13,15.72.79,24.12,2.77,8.4,1.98,16.47,4.96,24.23,8.94l-15.49,31.75Z"/>
      <path class="cls-3" d="M317.58,535.37c-.2-11.52,1.74-22.28,5.81-32.3,4.07-10.01,9.82-18.79,17.23-26.33,7.41-7.54,16.33-13.48,26.74-17.85,10.42-4.36,21.93-6.66,34.55-6.88,12.47-.22,24.03,1.67,34.66,5.67,10.63,4,19.82,9.63,27.56,16.9,7.74,7.27,13.82,15.84,18.25,25.71,4.42,9.87,6.74,20.56,6.94,32.08s-1.74,22.29-5.81,32.3c-4.08,10.02-9.86,18.79-17.34,26.33-7.48,7.54-16.46,13.49-26.95,17.85-10.49,4.37-21.97,6.66-34.44,6.88-12.62.22-24.2-1.67-34.77-5.67-10.56-4-19.68-9.64-27.35-16.91-7.67-7.27-13.72-15.84-18.14-25.71-4.42-9.86-6.74-20.56-6.94-32.08ZM359.75,534.64c.11,6.17,1.37,11.84,3.79,17.01,2.42,5.17,5.65,9.64,9.7,13.41,4.04,3.77,8.72,6.67,14.04,8.7,5.31,2.04,10.92,3,16.82,2.9,5.89-.1,11.46-1.26,16.71-3.48,5.24-2.22,9.85-5.28,13.83-9.19,3.98-3.91,7.08-8.49,9.33-13.74,2.24-5.25,3.31-10.96,3.2-17.13s-1.37-11.84-3.79-17.01c-2.42-5.17-5.69-9.64-9.8-13.41-4.11-3.77-8.83-6.67-14.14-8.7-5.32-2.03-10.92-3-16.82-2.9s-11.47,1.26-16.71,3.48c-5.24,2.22-9.82,5.28-13.73,9.19-3.91,3.91-6.98,8.49-9.22,13.74-2.24,5.25-3.31,10.96-3.2,17.13Z"/>
      <path class="cls-3" d="M507.83,532.05c-.2-11.52,1.74-22.28,5.81-32.3,4.07-10.01,9.82-18.79,17.23-26.33,7.41-7.54,16.33-13.48,26.74-17.85,10.42-4.36,21.93-6.66,34.55-6.88,12.47-.22,24.03,1.67,34.66,5.67,10.63,4,19.82,9.63,27.56,16.9,7.74,7.27,13.82,15.84,18.25,25.71,4.42,9.87,6.74,20.56,6.94,32.08.2,11.52-1.74,22.29-5.81,32.3-4.08,10.02-9.86,18.79-17.34,26.33-7.48,7.54-16.46,13.49-26.95,17.85-10.49,4.37-21.97,6.66-34.44,6.88-12.62.22-24.2-1.67-34.77-5.67-10.56-4-19.68-9.64-27.35-16.91-7.67-7.27-13.72-15.84-18.14-25.71-4.42-9.86-6.74-20.56-6.94-32.08ZM550,531.32c.11,6.17,1.37,11.84,3.79,17.01,2.42,5.17,5.65,9.64,9.7,13.41,4.04,3.77,8.72,6.67,14.04,8.7,5.31,2.04,10.92,3,16.82,2.9s11.46-1.26,16.71-3.48c5.24-2.22,9.85-5.28,13.83-9.19,3.98-3.91,7.08-8.49,9.33-13.74,2.24-5.25,3.31-10.96,3.2-17.13-.11-6.17-1.37-11.84-3.79-17.01-2.42-5.17-5.69-9.64-9.8-13.41-4.11-3.77-8.83-6.67-14.14-8.7-5.32-2.03-10.92-3-16.82-2.9s-11.47,1.26-16.71,3.48c-5.24,2.22-9.82,5.28-13.73,9.19-3.91,3.91-6.98,8.49-9.22,13.74-2.24,5.25-3.31,10.96-3.2,17.13Z"/>
      <path class="cls-3" d="M706.43,606.15l-2.71-155.08,40.31-.7,76.11,93.52-1.65-94.82,40.11-.7,2.71,155.08-40.11.7-76.11-93.52,1.65,94.82-40.31.7Z"/>
    </g>
  </g>
</svg>