<svg width="67" height="44" viewBox="0 0 67 44" fill="none" xmlns="http://www.w3.org/2000/svg">
<path d="M1.58745 24.1718C1.37359 24.1718 1.17619 24.117 0.995238 24.0073C0.814286 23.8976 0.668976 23.7523 0.559308 23.5714C0.449639 23.3904 0.394805 23.193 0.394805 22.9792V22.7406H1.65325V22.9134H3.97273V22.4199H1.58745C1.37359 22.4199 1.17619 22.365 0.995238 22.2554C0.814286 22.1457 0.668976 22.0004 0.559308 21.8194C0.449639 21.6385 0.394805 21.4411 0.394805 21.2272V20.5939C0.394805 20.38 0.449639 20.1826 0.559308 20.0017C0.668976 19.8207 0.814286 19.6754 0.995238 19.5658C1.17619 19.4561 1.37359 19.4012 1.58745 19.4012H4.03853C4.25787 19.4012 4.45801 19.4561 4.63896 19.5658C4.81991 19.6754 4.96522 19.8207 5.07489 20.0017C5.18456 20.1826 5.2394 20.38 5.2394 20.5939V20.8324H3.97273V20.6597H1.65325V21.1532H4.03853C4.25787 21.1532 4.45801 21.208 4.63896 21.3177C4.81991 21.4274 4.96522 21.5727 5.07489 21.7536C5.18456 21.9346 5.2394 22.132 5.2394 22.3458V22.9792C5.2394 23.193 5.18456 23.3904 5.07489 23.5714C4.96522 23.7523 4.81991 23.8976 4.63896 24.0073C4.45801 24.117 4.25787 24.1718 4.03853 24.1718H1.58745ZM7.25905 24.1718C7.03971 24.1718 6.83956 24.117 6.65861 24.0073C6.47766 23.8976 6.33235 23.7523 6.22268 23.5714C6.1185 23.3904 6.0664 23.193 6.0664 22.9792V21.1532H9.64433V20.6597H6.0664V19.4012H9.71013C9.92946 19.4012 10.1296 19.4561 10.3106 19.5658C10.4915 19.6754 10.6341 19.8207 10.7383 20.0017C10.8479 20.1826 10.9028 20.38 10.9028 20.5939V24.1718H7.25905ZM7.32485 22.9134H9.64433V22.2554H7.32485V22.9134ZM11.7216 24.1718V19.4012H15.3653C15.5846 19.4012 15.7848 19.4561 15.9657 19.5658C16.1467 19.6754 16.2892 19.8207 16.3934 20.0017C16.5031 20.1826 16.5579 20.38 16.5579 20.5939V24.1718H15.2995V20.6597H12.98V24.1718H11.7216ZM19.1677 24.1718L17.2923 19.4012H18.6248L19.6529 21.877L20.7304 19.4012H21.9477L23.0993 21.9099L24.0534 19.4012H25.3858L23.5928 24.1718H22.6387L21.3473 21.3259L20.1135 24.1718H19.1677ZM27.0347 24.1718C26.8153 24.1718 26.6152 24.117 26.4342 24.0073C26.2533 23.8976 26.108 23.7523 25.9983 23.5714C25.8941 23.3904 25.842 23.193 25.842 22.9792V21.1532H29.4199V20.6597H25.842V19.4012H29.4857C29.7051 19.4012 29.9052 19.4561 30.0862 19.5658C30.2671 19.6754 30.4097 19.8207 30.5139 20.0017C30.6235 20.1826 30.6784 20.38 30.6784 20.5939V24.1718H27.0347ZM27.1005 22.9134H29.4199V22.2554H27.1005V22.9134ZM35.3881 24.1718C35.1742 24.1718 34.9768 24.117 34.7959 24.0073C34.6149 23.8976 34.4696 23.7523 34.3599 23.5714C34.2503 23.3904 34.1954 23.193 34.1954 22.9792V20.5939C34.1954 20.38 34.2503 20.1826 34.3599 20.0017C34.4696 19.8207 34.6149 19.6754 34.7959 19.5658C34.9768 19.4561 35.1742 19.4012 35.3881 19.4012H37.8392C38.0585 19.4012 38.2587 19.4561 38.4396 19.5658C38.6206 19.6754 38.7631 19.8207 38.8673 20.0017C38.977 20.1826 39.0318 20.38 39.0318 20.5939V22.4199H35.4539V22.9134H39.0318V24.1718H35.3881ZM35.4539 21.3177H37.7734V20.6597H35.4539V21.3177ZM39.915 24.1718V19.4012H43.5588C43.7781 19.4012 43.9783 19.4561 44.1592 19.5658C44.3402 19.6754 44.4827 19.8207 44.5869 20.0017C44.6966 20.1826 44.7514 20.38 44.7514 20.5939V24.1718H43.493V20.6597H41.1735V24.1718H39.915ZM46.5611 24.1718C46.3472 24.1718 46.1498 24.117 45.9689 24.0073C45.7879 23.8976 45.6426 23.7523 45.5329 23.5714C45.4233 23.3904 45.3684 23.193 45.3684 22.9792V20.5939C45.3684 20.38 45.4233 20.1826 45.5329 20.0017C45.6426 19.8207 45.7879 19.6754 45.9689 19.5658C46.1498 19.4561 46.3472 19.4012 46.5611 19.4012H49.0121C49.2315 19.4012 49.4316 19.4561 49.6126 19.5658C49.7935 19.6754 49.9361 19.8207 50.0403 20.0017C50.15 20.1826 50.2048 20.38 50.2048 20.5939V22.4199H46.6269V22.9134H50.2048V24.1718H46.5611ZM46.6269 21.3177H48.9463V20.6597H46.6269V21.3177ZM51.0153 24.1718V20.5939C51.0153 20.38 51.0702 20.1826 51.1798 20.0017C51.2895 19.8207 51.4348 19.6754 51.6158 19.5658C51.7967 19.4561 51.9969 19.4012 52.2162 19.4012H54.8482V20.6597H52.2738V24.1718H51.0153ZM56.0913 26.0554V24.7887H58.9208V24.1718H56.5355C56.3162 24.1718 56.116 24.117 55.9351 24.0073C55.7541 23.8976 55.6088 23.7523 55.4991 23.5714C55.3895 23.3904 55.3346 23.193 55.3346 22.9792V20.5939C55.3346 20.38 55.3895 20.1826 55.4991 20.0017C55.6088 19.8207 55.7541 19.6754 55.9351 19.5658C56.116 19.4561 56.3162 19.4012 56.5355 19.4012H58.9866C59.2059 19.4012 59.4061 19.4561 59.587 19.5658C59.768 19.6754 59.9105 19.8207 60.0147 20.0017C60.1244 20.1826 60.1792 20.38 60.1792 20.5939V24.8627C60.1792 25.0821 60.1244 25.2822 60.0147 25.4632C59.9105 25.6441 59.768 25.7867 59.587 25.8909C59.4061 26.0005 59.2059 26.0554 58.9866 26.0554H56.0913ZM56.5931 22.9134H58.9208V20.6597H56.5931V22.9134ZM61.5535 25.8826V24.616H64.383V24.1718H61.9977C61.7783 24.1718 61.5782 24.117 61.3972 24.0073C61.2163 23.8976 61.071 23.7523 60.9613 23.5714C60.8516 23.3904 60.7968 23.193 60.7968 22.9792V19.4177H62.0552V22.9134H64.383V19.4177H65.6414V24.69C65.6414 24.9093 65.5866 25.1095 65.4769 25.2904C65.3727 25.4714 65.2301 25.614 65.0492 25.7181C64.8682 25.8278 64.6681 25.8826 64.4488 25.8826H61.5535Z" fill="#131314"/>
<path d="M54.9429 41.6777V44H46.1431L33.0045 28.416L19.8658 44H11.1265V41.7383L24.2183 26.1357H41.814L54.9429 41.6777ZM33.065 15.6445L46.1431 0H54.9429V2.26074L42.3873 17.1709H23.6363L11.1265 2.26074V0H19.8658L33.065 15.6445Z" fill="#131314"/>
</svg>
