<svg width="21" height="21" viewBox="0 0 21 21" fill="none" xmlns="http://www.w3.org/2000/svg">
<path d="M11.0567 12.8014C9.72841 12.8014 8.75612 12.8767 8.13989 13.0273C7.52365 13.178 6.99643 13.4724 6.55821 13.9106L3.7646 16.7042C3.61397 16.8549 3.42581 16.9302 3.20013 16.9302C2.97445 16.9302 2.77917 16.8549 2.61429 16.7042C2.44996 16.5399 2.3678 16.3449 2.3678 16.1192C2.3678 15.8935 2.44996 15.6982 2.61429 15.5334L5.38736 12.7603C5.81188 12.3358 6.10302 11.8053 6.26077 11.1688C6.41853 10.5323 6.49714 9.55641 6.49659 8.24122C6.49659 7.44696 6.67461 6.6664 7.03066 5.89952C7.38671 5.13265 7.89339 4.42055 8.55071 3.76323C9.79688 2.51706 11.1731 1.81182 12.6795 1.64749C14.1859 1.48316 15.4252 1.90083 16.3975 2.9005C17.3834 3.88648 17.7943 5.13265 17.6299 6.63901C17.4656 8.14537 16.7672 9.51478 15.5347 10.7473C14.8774 11.4046 14.1653 11.9113 13.3984 12.2673C12.6316 12.6234 11.851 12.8014 11.0567 12.8014ZM8.83829 10.4186C9.48191 11.0485 10.3515 11.2813 11.447 11.117C12.5426 10.9527 13.5217 10.4391 14.3844 9.57641C15.2609 8.69998 15.7848 7.71729 15.9562 6.62833C16.1277 5.53937 15.8913 4.68704 15.2472 4.07135C14.5898 3.41403 13.7307 3.16754 12.6696 3.33187C11.6086 3.4962 10.6328 4.01658 9.7421 4.893C8.87937 5.75573 8.35571 6.73158 8.17111 7.82054C7.98651 8.9095 8.20891 9.77552 8.83829 10.4186ZM15.165 19.7443C14.2612 19.7443 13.4875 19.4225 12.8438 18.7789C12.2002 18.1353 11.8784 17.3615 11.8784 16.4577C11.8784 15.5539 12.2002 14.7802 12.8438 14.1366C13.4875 13.4929 14.2612 13.1711 15.165 13.1711C16.0688 13.1711 16.8425 13.4929 17.4862 14.1366C18.1298 14.7802 18.4516 15.5539 18.4516 16.4577C18.4516 17.3615 18.1298 18.1353 17.4862 18.7789C16.8425 19.4225 16.0688 19.7443 15.165 19.7443Z" fill="white"/>
</svg>
