<svg width="24" height="30" viewBox="0 0 24 30" fill="none" xmlns="http://www.w3.org/2000/svg">
<path d="M12 25.8666L18.6 19.2666C19.9052 17.9613 20.794 16.2983 21.1541 14.4878C21.5141 12.6773 21.3292 10.8008 20.6228 9.09538C19.9163 7.39 18.7201 5.93239 17.1852 4.90687C15.6504 3.88135 13.8459 3.33398 12 3.33398C10.1541 3.33398 8.34962 3.88135 6.81478 4.90687C5.27994 5.93239 4.08367 7.39 3.37722 9.09538C2.67077 10.8008 2.48589 12.6773 2.84594 14.4878C3.20599 16.2983 4.09481 17.9613 5.4 19.2666L12 25.8666ZM12 29.6373L3.51467 21.152C1.83646 19.4737 0.693582 17.3355 0.230571 15.0078C-0.232439 12.68 0.00520913 10.2672 0.913465 8.07451C1.82172 5.88181 3.35979 4.00767 5.33318 2.6891C7.30656 1.37053 9.62663 0.666748 12 0.666748C14.3734 0.666748 16.6934 1.37053 18.6668 2.6891C20.6402 4.00767 22.1783 5.88181 23.0865 8.07451C23.9948 10.2672 24.2324 12.68 23.7694 15.0078C23.3064 17.3355 22.1636 19.4737 20.4853 21.152L12 29.6373ZM12 15.3333C12.7072 15.3333 13.3855 15.0524 13.8856 14.5523C14.3857 14.0522 14.6667 13.3739 14.6667 12.6666C14.6667 11.9594 14.3857 11.2811 13.8856 10.781C13.3855 10.2809 12.7072 9.99998 12 9.99998C11.2928 9.99998 10.6145 10.2809 10.1144 10.781C9.61429 11.2811 9.33334 11.9594 9.33334 12.6666C9.33334 13.3739 9.61429 14.0522 10.1144 14.5523C10.6145 15.0524 11.2928 15.3333 12 15.3333ZM12 18C10.5855 18 9.22896 17.4381 8.22877 16.4379C7.22857 15.4377 6.66667 14.0811 6.66667 12.6666C6.66667 11.2522 7.22857 9.8956 8.22877 8.89541C9.22896 7.89521 10.5855 7.33331 12 7.33331C13.4145 7.33331 14.771 7.89521 15.7712 8.89541C16.7714 9.8956 17.3333 11.2522 17.3333 12.6666C17.3333 14.0811 16.7714 15.4377 15.7712 16.4379C14.771 17.4381 13.4145 18 12 18Z" fill="#131314"/>
</svg>
