<svg width="28" height="28" viewBox="0 0 28 28" fill="none" xmlns="http://www.w3.org/2000/svg">
<path d="M14 0.666748C21.364 0.666748 27.3333 6.63608 27.3333 14.0001C27.3333 21.3641 21.364 27.3334 14 27.3334C6.636 27.3334 0.666664 21.3641 0.666664 14.0001C0.666664 6.63608 6.636 0.666748 14 0.666748ZM14 3.33341C11.171 3.33341 8.45791 4.45722 6.45752 6.45761C4.45714 8.458 3.33333 11.1711 3.33333 14.0001C3.33333 16.8291 4.45714 19.5422 6.45752 21.5426C8.45791 23.5429 11.171 24.6667 14 24.6667C16.829 24.6667 19.5421 23.5429 21.5425 21.5426C23.5429 19.5422 24.6667 16.8291 24.6667 14.0001C24.6667 11.1711 23.5429 8.458 21.5425 6.45761C19.5421 4.45722 16.829 3.33341 14 3.33341ZM14 6.00008C14.3266 6.00012 14.6418 6.12002 14.8858 6.33703C15.1299 6.55405 15.2858 6.85308 15.324 7.17741L15.3333 7.33341V13.4481L18.9427 17.0574C19.1818 17.2974 19.3206 17.6193 19.331 17.9579C19.3413 18.2965 19.2224 18.6264 18.9983 18.8805C18.7743 19.1345 18.4619 19.2938 18.1247 19.3259C17.7875 19.3581 17.4507 19.2606 17.1827 19.0534L17.0573 18.9427L13.0573 14.9427C12.8501 14.7353 12.717 14.4654 12.6787 14.1747L12.6667 14.0001V7.33341C12.6667 6.97979 12.8071 6.64065 13.0572 6.39061C13.3072 6.14056 13.6464 6.00008 14 6.00008Z" fill="#131314"/>
</svg>
